<svg width="1043" height="385" viewBox="0 0 1043 385" fill="none" xmlns="http://www.w3.org/2000/svg">
<path d="M1041.22 1.99084C1003.03 1.99084 964.831 1.99084 926.636 1.99084C866.805 1.99084 821.387 43.7958 800.551 97.7241C795.591 110.564 791.286 123.041 790.925 136.766C790.56 150.606 790.038 167.809 787.315 181.424C777.877 228.611 762.773 273.702 728.751 309.514C708.584 330.743 694.989 341.896 665.241 345.614C636.303 349.232 598.959 349.052 572.048 336.389C531.068 317.104 521.374 271.148 521.374 229.558C521.374 180.806 565.478 164.692 607.48 165.647C649.476 166.601 656.149 240.23 656.149 270.472C656.149 291.257 655.658 318.259 636.361 329.837C613.799 343.374 590.144 344.681 564.828 349.893C541.912 354.611 518.333 353.812 494.9 353.369C467.387 352.85 444.364 331.336 416.816 329.436C380.191 326.91 333.381 318.636 298.888 334.651C251.911 356.461 194.625 380.793 142.185 382.25C123.965 382.756 104.951 383.754 89.3709 372.757C73.6113 361.632 58.1384 351.624 42.975 338.929C24.1777 323.192 7.47368 302.551 1.52628 278.762" stroke="#FF9933" stroke-width="3" stroke-linecap="round" stroke-dasharray="6 6"/>
</svg>
