<svg width="27" height="27" viewBox="0 0 27 27" fill="none" xmlns="http://www.w3.org/2000/svg">
<path d="M6.04436 27.001H0.44648V8.97396H6.04436V27.001ZM3.24204 6.51495C1.45227 6.51495 0 5.03182 0 3.24204C0 2.3822 0.341572 1.55757 0.949573 0.949573C1.55757 0.341572 2.3822 0 3.24204 0C4.10189 0 4.92651 0.341572 5.53452 0.949573C6.14252 1.55757 6.48409 2.3822 6.48409 3.24204C6.48409 5.03182 5.03182 6.51495 3.24204 6.51495ZM26.9952 27.001H21.4098V18.2256C21.4098 16.134 21.3674 13.4523 18.4995 13.4523C15.5892 13.4523 15.1427 15.7242 15.1427 18.0752V27.001H9.55063V8.97396H14.919V11.433H14.9971C15.7445 10.0164 17.5699 8.5217 20.2932 8.5217C25.9585 8.5217 27 12.2527 27 17.0984V27.001H26.9952Z" fill="black"/>
</svg>
