<svg width="28" height="27" viewBox="0 0 28 27" fill="none" xmlns="http://www.w3.org/2000/svg">
<path d="M6.268 27H0.463V8.97364H6.268V27ZM3.362 6.51471C1.506 6.51471 0 5.03164 0 3.24193C0 2.38212 0.35421 1.55752 0.984707 0.949539C1.6152 0.341559 2.47034 0 3.362 0C4.25366 0 5.1088 0.341559 5.73929 0.949539C6.36979 1.55752 6.724 2.38212 6.724 3.24193C6.724 5.03164 5.218 6.51471 3.362 6.51471ZM27.994 27H22.202V18.225C22.202 16.1335 22.158 13.4518 19.184 13.4518C16.166 13.4518 15.703 15.7236 15.703 18.0746V27H9.904V8.97364H15.471V11.4326H15.552C16.327 10.016 18.22 8.52139 21.044 8.52139C26.919 8.52139 27.999 12.2522 27.999 17.0978V27H27.994Z" fill="black"/>
</svg>
